<?xml version="1.0" encoding="UTF-8"?>
<svg width="896px" height="622px" viewBox="0 0 896 622" version="1.1" xmlns="http://www.w3.org/2000/svg" xmlns:xlink="http://www.w3.org/1999/xlink">
    <!-- Generator: Sketch 58 (84663) - https://sketch.com -->
    <title>hero</title>
    <desc>Created with Sketch.</desc>
    <g id="Page-1" stroke="none" stroke-width="1" fill="none" fill-rule="evenodd">
        <g id="hero" fill-rule="nonzero">
            <rect id="Rectangle" fill="#01172F" x="0.82764" y="577.66157" width="895" height="2"></rect>
            <rect id="Rectangle" fill="#2F2E41" transform="translate(475.335260, 120.877400) rotate(-180.000000) translate(-475.335260, -120.877400) " x="445.59884" y="77.54128" width="59.47284" height="86.67224"></rect>
            <path d="M493.57812,117.52244 C493.57812,117.52244 491.34063,160.31321 511.12634,162.06792 C524.9697,163.29563 484.12908,201.21392 484.12908,201.21392 L449.03264,152.61885 C449.03264,152.61885 475.34064,155.31318 458.48164,125.62159 L493.57812,117.52244 Z" id="Path" fill="#FFB8B8"></path>
            <path d="M449.03063,152.62324 L460.12063,167.98324 L484.13058,201.21324 C484.13058,201.21324 504.18058,182.59324 511.42058,171.03324 C514.14058,166.68324 515.06058,163.33324 512.42058,162.34324 C512.408841,162.335299 512.394675,162.331758 512.38058,162.33324 C512.001497,162.191289 511.604217,162.103753 511.20058,162.07324 C511.177571,162.067935 511.154154,162.06459 511.13058,162.06324 C509.977604,161.966334 508.843547,161.710582 507.76058,161.30324 C491.60058,155.26324 493.58058,117.52324 493.58058,117.52324 L458.48058,125.62324 C469.73058,145.43324 461.76058,150.83324 455.21058,152.22324 C453.773071,152.523024 452.309003,152.677136 450.84058,152.68324 C449.73064,152.69324 449.03063,152.62324 449.03063,152.62324 Z" id="Path" fill="#000000" opacity="0.1"></path>
            <path d="M438.71409,82.37824 C445.13986,101.40335 454.99295,118.73809 475.07394,118.73809 C495.15493,118.73809 510.30233,102.42724 511.43382,82.37824 C512.87959,56.7595 495.6182,45.91224 475.07398,46.01839 C450.80427,46.14371 431.08823,59.80001 438.71409,82.37824 Z" id="Path" fill="#2F2E41"></path>
            <path d="M524.62498,391.54466 L515.17598,457.68795 C515.17598,457.68795 523.27516,498.18385 519.22557,526.53095 L515.17598,556.22795 L496.27782,556.22795 L490.87837,525.1811 C490.87837,525.1811 485.47891,492.78438 485.47891,477.93589 C485.47891,477.93589 470.63042,410.44273 480.07946,396.9441 L524.62498,391.54466 Z" id="Path" fill="#FFB8B8"></path>
            <path d="M409.88661,387.49507 L419.33561,457.68795 C419.33561,457.68795 411.23643,498.18385 415.28602,526.53095 L419.33561,556.22795 L438.23369,556.22795 L443.63315,525.1811 C443.63315,525.1811 449.0326,492.78438 449.0326,477.93589 C449.0326,477.93589 463.88109,406.39314 454.43205,392.89451 L409.88661,387.49507 Z" id="Path" fill="#FFB8B8"></path>
            <path d="M428.78469,552.17837 C428.78469,552.17837 417.98579,548.12878 416.63592,553.52824 C415.28605,558.9277 412.58633,587.27481 412.58633,587.27481 C412.58633,587.27481 404.48716,599.42358 399.0877,600.77345 C393.68824,602.12332 381.53948,619.67153 396.38798,621.02139 C411.23648,622.37125 426.08498,616.9718 426.08498,614.27208 C426.08498,611.57236 431.48443,610.22249 434.18415,610.22249 C436.88387,610.22249 446.33292,606.1729 444.98306,602.12331 C443.6332,598.07372 439.58361,550.82851 439.58361,550.82851 L428.78469,552.17837 Z" id="Path" fill="#2F2E41"></path>
            <path d="M505.72689,552.17837 C505.72689,552.17837 516.5258,548.12878 517.87566,553.52824 C519.22552,558.9277 521.92525,587.27481 521.92525,587.27481 C521.92525,587.27481 530.02443,599.42358 535.42388,600.77345 C540.82333,602.12332 552.9721,619.67153 538.12361,621.02139 C523.27512,622.37125 508.42661,616.9718 508.42661,614.27208 C508.42661,611.57236 503.02716,610.22249 500.32743,610.22249 C497.6277,610.22249 488.17866,606.1729 489.52852,602.12331 C490.87838,598.07372 494.92798,550.82851 494.92798,550.82851 L505.72689,552.17837 Z" id="Path" fill="#2F2E41"></path>
            <circle id="Oval" fill="#FFB8B8" cx="473.33017" cy="105.37367" r="27.98955"></circle>
            <path d="M368.04064,259.25324 C368.04064,259.25324 424.73064,283.55324 430.13064,257.90324 C433.451044,241.873381 435.70598,225.641181 436.88064,209.31324 C436.886034,209.307809 436.893059,209.304297 436.90064,209.30324 C437.69064,208.82324 465.62064,191.68324 460.12064,167.98324 C458.84043,162.849521 456.435852,158.064274 453.08064,153.97324 C453.08064,153.97324 452.25064,153.43324 450.84064,152.68324 C449.187731,151.80043 447.481043,151.022234 445.73064,150.35324 C436.20064,146.72324 420.35064,144.67324 416.64064,168.81324 C411.24064,203.91324 411.24064,241.71324 411.24064,241.71324 C411.24064,241.71324 395.04064,251.16324 373.44064,241.71324 C351.84064,232.26324 330.24064,237.66324 328.89064,249.81324 C327.54064,261.95324 368.04064,259.25324 368.04064,259.25324 Z" id="Path" fill="#FFB8B8"></path>
            <path d="M511.13061,162.06324 L511.42061,171.03324 L514.64061,272.15324 L515.18061,288.95329 L562.42061,341.60329 C562.42061,341.60329 571.87061,369.94329 592.12061,373.99329 C612.37061,378.04329 578.62061,334.85329 578.62061,334.85329 L532.72061,267.35329 L532.65061,265.08329 C532.133573,246.170832 533.709822,227.259201 537.35061,208.69329 C538.697906,201.782686 538.957703,194.704065 538.12061,187.71329 C536.24061,172.65329 523.85061,166.12329 516.53061,163.55329 C515.185168,163.070797 513.812862,162.666784 512.42061,162.34329 C512.408871,162.335349 512.394705,162.331808 512.38061,162.33329 C511.77061,162.18329 511.36061,162.10329 511.20061,162.07329 C511.177603,162.067968 511.154185,162.06324 511.13061,162.06324 Z" id="Path" fill="#FFB8B8"></path>
            <path d="M435.53063,259.25324 L435.53063,264.65324 C455.21063,288.70329 498.77063,277.34324 514.64063,272.15324 C518.37063,270.93324 520.57063,270.05324 520.57063,270.05324 C519.762805,268.362075 519.303686,266.525597 519.22063,264.65324 L519.22063,252.51324 C519.22063,248.46324 517.88063,251.16324 516.53063,249.81324 C515.18063,248.46324 520.57063,240.36324 520.57063,240.36324 C534.07063,232.26324 525.97063,209.31324 525.97063,209.31324 L516.53063,189.06324 L516.53063,163.55324 C515.185188,163.070747 513.812882,162.666734 512.42063,162.34324 C512.408891,162.335299 512.394725,162.331758 512.38063,162.33324 C512.001547,162.191289 511.604267,162.103753 511.20063,162.07324 C511.177621,162.067935 511.154204,162.06459 511.13063,162.06324 C509.977654,161.966334 508.843597,161.710582 507.76063,161.30324 C505.23063,166.52324 499.73063,173.39324 488.18063,174.21324 C474.35063,175.20324 461.24063,160.29324 455.21063,152.22324 C453.773121,152.523024 452.309053,152.677136 450.84063,152.68324 C449.187721,151.80043 447.481033,151.022234 445.73063,150.35324 L451.73063,175.56324 C457.04063,188.83324 437.57063,208.61324 436.90063,209.30324 C436.893049,209.304297 436.886024,209.307809 436.88063,209.31324 L436.88063,224.16324 L438.23063,240.36324 L439.58063,244.41324 L436.88063,248.46324 L438.23063,252.51324 L436.88063,255.21324 C435.53063,257.90317 435.53063,256.56324 435.53063,259.25324 Z" id="Path" fill="#D0CDE1"></path>
            <path d="M517.87566,268.70711 L521.92525,267.35725 C521.92525,267.35725 570.52032,388.84493 538.12361,394.24438 C505.7269,399.64383 481.42935,409.09288 476.0299,399.64384 C470.63045,390.1948 473.33018,356.44822 473.33018,356.44822 L467.93072,355.09835 C467.93072,355.09835 477.37977,405.04329 458.48172,400.9937 C439.58367,396.94411 386.93897,390.19479 386.93897,384.79534 C386.93897,379.39589 435.53405,262.78153 435.53405,262.78153 C435.53405,262.78153 455.78195,275.45643 517.87566,268.70711 Z" id="Path" fill="#2F2E41"></path>
            <circle id="Oval" fill="#2F2E41" cx="475.07393" cy="39.32048" r="14.35257"></circle>
            <path d="M492.29702,31.66578 C492.296466,24.2951786 486.713337,18.1230236 479.37971,17.38568 C479.85188,17.33879 480.33041,17.31321 480.81496,17.31321 C485.94264,17.31321 490.680811,20.0487941 493.244651,24.4894948 C495.808491,28.9301955 495.808491,34.4013645 493.244651,38.8420652 C490.680811,43.2827659 485.94264,46.01835 480.81496,46.01835 C480.33041,46.01835 479.85188,45.99277 479.37971,45.94588 C486.713328,45.2085186 492.296448,39.0363743 492.29702,31.66578 L492.29702,31.66578 Z" id="Path" fill="#2F2E41"></path>
            <path d="M486.63139,69.3328 C486.63139,69.3328 486.93109,67.66447 498.65211,72.05986 C510.37313,76.45525 517.39911,108.89124 511.53856,127.93786 C509.1768,135.61359 511.09805,141.14786 514.23381,145.01998 C526.00108,159.55074 521.36881,181.37553 504.22881,188.84775 C503.745023,189.058663 503.251357,189.267157 502.74781,189.47323 L495.42217,193.86861 C495.42217,193.86861 504.76078,181.58096 500.08739,165.86279 C496.028886,152.470302 495.527689,138.251805 498.63313,124.60679 C499.16929,122.30498 499.77833,119.93224 500.47013,117.51085 C506.33064,96.99906 503.48034,99.36785 482.96855,78.85608 C482.96855,78.85608 471.24755,87.64684 460.99164,92.04222 C450.73573,96.4376 441.94498,100.83299 449.27064,115.48422 C456.5963,130.13545 474.17782,143.32175 462.45682,162.36841 C450.73582,181.41507 449.27067,174.08941 450.73582,181.41507 L450.73582,181.41507 L452.20095,188.74071 L443.41018,179.94994 L449.2707,191.67094 C449.2707,191.67094 430.22404,191.67094 424.36352,177.01966 L421.43327,179.94992 C421.43327,179.94992 409.71227,159.43813 431.68916,140.39147 C431.68916,140.39147 439.0148,135.99609 428.75891,121.34481 C418.50302,106.69353 426.37966,75.19329 439.56581,69.33281 C452.75196,63.47233 486.63139,69.3328 486.63139,69.3328 Z" id="Path" fill="#2F2E41"></path>
            <path d="M342.80264,133.76001 L342.80264,199.44001 C342.799272,200.703344 341.775974,201.726642 340.51264,201.73001 L338.88272,201.73001 L338.88272,543.88001 C338.881616,563.596145 322.898785,579.58001 303.18265,579.58001 L89.39273,579.58001 C79.9256917,579.58001 70.8468027,575.817262 64.1535279,569.122123 C57.460253,562.426984 53.7009353,553.347048 53.70267,543.88001 L53.70267,213.73001 L52.52262,213.73001 C51.6312482,213.731342 50.9067794,213.011323 50.90262,212.11996 L50.90262,174.74005 C50.9025271,174.310365 51.0731735,173.898252 51.3770008,173.594413 C51.6808282,173.290575 52.0929353,173.119913 52.52262,173.11999 L53.70267,173.11999 L53.70267,159.04004 L52.51261,159.04004 C51.576824,159.036473 50.8226062,158.275831 50.8226062,157.34004 L50.8226062,120.47004 C50.8226062,119.537664 51.580234,118.782414 52.51261,118.78004 L53.70267,118.78004 L53.70267,99.56004 L52.49259,99.56004 C52.0946025,99.5605717 51.7127626,99.4027072 51.4313427,99.1212873 C51.1499228,98.8398674 50.9920583,98.4580275 50.99259,98.06004 L50.99259,77.94004 C50.9907126,77.1092145 51.6617703,76.433683 52.49259,76.43004 L53.70267,76.43004 L53.70267,35.69004 C53.7034211,15.979285 69.681975,4.00000001e-05 89.39273,4.00000001e-05 L303.18265,4.00000001e-05 C322.895359,4.00000001e-05 338.877248,15.9773319 338.88272,35.69004 L338.88272,131.47004 L340.51261,131.47004 C341.775956,131.473364 342.799283,132.496664 342.80264,133.76001 Z" id="Path" fill="#01172F"></path>
            <rect id="Rectangle" fill="#E6E8EC" x="169.30627" y="18.3068" width="39.82343" height="8.08642" rx="2.54189"></rect>
            <circle id="Oval" fill="#E6E8EC" cx="219.7377" cy="22.35" r="4.58665"></circle>
            <path d="M321.787661,42.74982 L321.787661,546.83982 C321.781891,559.345061 311.642903,569.479854 299.13766,569.479854 L94.48766,569.479854 C88.4790346,569.490295 82.713347,567.108701 78.4636628,562.860893 C74.2139786,558.613085 71.829838,552.848449 71.8376408,546.83982 L71.8376408,42.74982 C71.8376408,36.7425852 74.223642,30.981315 78.4713985,26.7335585 C82.719155,22.485802 88.4804252,20.0998188 94.48766,20.0998188 L125.11766,20.0998188 L125.11766,24.02982 C125.117743,34.3298963 133.467584,42.6797372 143.76766,42.67982 L247.84766,42.67982 C258.147748,42.6797648 266.497605,34.3299077 266.49766,24.02982 L266.49766,20.0998188 L299.13766,20.0998188 C305.14541,20.0998188 310.907658,22.4835791 315.15578,26.7317004 C319.403901,30.9798217 321.787661,36.7420696 321.787661,42.74982 Z" id="Path" fill="#067BC2"></path>
            <rect id="Rectangle" fill="#000000" opacity="0.2" x="81.82764" y="185.35056" width="232" height="113"></rect>
            <rect id="Rectangle" fill="#F2F2F2" x="613.49011" y="281.15986" width="232" height="113"></rect>
            <rect id="Rectangle" fill="#01172F" x="81.82764" y="356.62983" width="232" height="113"></rect>
            <circle id="Oval" fill="#FFFFFF" cx="289.82764" cy="81.62983" r="20"></circle>
            <polygon id="Path" fill="#01172F" points="298.828 80.987 290.47 80.987 290.47 72.63 289.185 72.63 289.185 80.987 280.828 80.987 280.828 82.273 289.185 82.273 289.185 90.63 290.47 90.63 290.47 82.273 298.828 82.273"></polygon>
            <rect id="Rectangle" fill="#01172F" x="587.49011" y="266.15986" width="232" height="113"></rect>
            <path d="M691.05659,342.03005 C697.12975,364.48011 717.93171,378.38405 717.93171,378.38405 C717.93171,378.38405 728.88712,355.8892 722.81396,333.43914 C716.7408,310.98908 695.93882,297.08514 695.93882,297.08514 C695.93882,297.08514 684.98343,319.57999 691.05659,342.03005 Z" id="Path" fill="#FFFFFF"></path>
            <path d="M699.98068,337.20529 C716.64552,353.42785 718.68101,378.36569 718.68101,378.36569 C718.68101,378.36569 693.69745,377.00158 677.0326,360.77902 C660.36775,344.55646 658.33226,319.61862 658.33226,319.61862 C658.33226,319.61862 683.31582,320.98274 699.98068,337.20529 Z" id="Path" fill="#067BC2"></path>
            <path d="M175.23627,434.22075 C181.30943,456.67081 202.11139,470.5747 202.11139,470.5747 C202.11139,470.5747 213.0668,448.07985 206.99364,425.62979 C200.92048,403.17973 180.11852,389.27579 180.11852,389.27579 C180.11852,389.27579 169.16311,411.77069 175.23627,434.22075 Z" id="Path" fill="#FFFFFF"></path>
            <path d="M184.16036,429.39599 C200.8252,445.61855 202.86069,470.55639 202.86069,470.55639 C202.86069,470.55639 177.87713,469.19228 161.21228,452.96972 C144.54743,436.74716 142.51194,411.80932 142.51194,411.80932 C142.51194,411.80932 167.49551,413.17344 184.16036,429.39599 Z" id="Path" fill="#067BC2"></path>
            <path d="M230.48511,434.22075 C224.41195,456.67081 203.61,470.5747 203.61,470.5747 C203.61,470.5747 192.65459,448.07985 198.72775,425.62979 C204.80091,403.17973 225.60286,389.27579 225.60286,389.27579 C225.60286,389.27579 236.55828,411.77069 230.48511,434.22075 Z" id="Path" fill="#FFFFFF"></path>
            <path d="M221.56103,429.39599 C204.89618,445.61855 202.86069,470.55639 202.86069,470.55639 C202.86069,470.55639 227.84426,469.19228 244.5091,452.96972 C261.17394,436.74716 263.20944,411.80932 263.20944,411.80932 C263.20944,411.80932 238.22588,413.17344 221.56103,429.39599 Z" id="Path" fill="#067BC2"></path>
            <rect id="Rectangle" fill="#01172F" x="131.82764" y="167.35056" width="232" height="113"></rect>
            <rect id="Rectangle" fill="#FFFFFF" x="246.9751" y="206.09467" width="2" height="74.41113"></rect>
            <circle id="Oval" fill="#067BC2" cx="247.97533" cy="207.0943" r="10.52282"></circle>
            <path d="M247.97533,251.95557 C247.97533,251.95557 246.47207,219.62364 215.65524,223.38179" id="Path" fill="#FFFFFF"></path>
        </g>
    </g>
</svg>