<?xml version="1.0" encoding="UTF-8"?>
<svg width="151px" height="45px" viewBox="0 0 151 45" version="1.1" xmlns="http://www.w3.org/2000/svg" xmlns:xlink="http://www.w3.org/1999/xlink">
    <!-- Generator: Sketch 61.2 (89653) - https://sketch.com -->
    <title>logo</title>
    <desc>Created with Sketch.</desc>
    <defs>
        <polygon id="path-1" points="127.703125 50 127.703125 32.09375 131.804688 32.09375 131.804688 27.171875 127.703125 27.171875 127.703125 18.8046875 122.429687 25.0452881 122.429688 27.171875 120.179688 27.171875 120.179688 32.09375 122.429688 32.09375 122.429688 50"></polygon>
        <path d="M115.445312,25.8671875 C116.398438,25.8671875 117.203125,25.53125 117.859375,24.859375 C118.53125,24.1875 118.867188,23.375 118.867188,22.421875 C118.867188,21.46875 118.53125,20.6640625 117.859375,20.0078125 C117.1875,19.3359375 116.375,19 115.421875,19 C114.484375,19 113.679688,19.3359375 113.007812,20.0078125 C112.335938,20.6796875 112,21.4765625 112,22.3984375 C112,23.3671875 112.335938,24.1875 113.007812,24.859375 C113.679688,25.53125 114.492188,25.8671875 115.445312,25.8671875 Z M118.070312,49.71875 L118.070312,26.890625 L112.796875,26.890625 L112.796875,49.71875 L118.070312,49.71875 Z" id="path-2"></path>
        <path d="M104.234375,50.65625 C106.375,50.65625 108.515625,50.1015625 110.65625,48.9921875 L110.65625,48.9921875 L110.65625,42.03125 C109.390625,43.5625 108.289062,44.59375 107.351562,45.125 C106.382812,45.671875 105.265625,45.9453125 104,45.9453125 C102.015625,45.9453125 100.382812,45.2578125 99.1015625,43.8828125 C97.8359375,42.5078125 97.203125,40.75 97.203125,38.609375 C97.203125,36.515625 97.859375,34.7734375 99.171875,33.3828125 C100.484375,31.9921875 102.132812,31.296875 104.117188,31.296875 C105.382812,31.296875 106.484375,31.578125 107.421875,32.140625 C108.375,32.6875 109.453125,33.6953125 110.65625,35.1640625 L110.65625,35.1640625 L110.65625,28.15625 C108.65625,27.078125 106.53125,26.5390625 104.28125,26.5390625 C100.78125,26.5390625 97.828125,27.7109375 95.421875,30.0546875 C93.015625,32.3984375 91.8125,35.2734375 91.8125,38.6796875 C91.8125,42.0859375 93,44.9375 95.375,47.234375 C97.75,49.515625 100.703125,50.65625 104.234375,50.65625 Z" id="path-3"></path>
        <polygon id="path-4" points="72.2734375 50 72.2734375 19 67 25.0230713 67 50"></polygon>
        <path d="M61.4453125,25.8671875 C62.3984375,25.8671875 63.203125,25.53125 63.859375,24.859375 C64.53125,24.1875 64.8671875,23.375 64.8671875,22.421875 C64.8671875,21.46875 64.53125,20.6640625 63.859375,20.0078125 C63.1875,19.3359375 62.375,19 61.421875,19 C60.484375,19 59.6796875,19.3359375 59.0078125,20.0078125 C58.3359375,20.6796875 58,21.4765625 58,22.3984375 C58,23.3671875 58.3359375,24.1875 59.0078125,24.859375 C59.6796875,25.53125 60.4921875,25.8671875 61.4453125,25.8671875 Z M64.0703125,49.71875 L64.0703125,26.890625 L58.796875,26.890625 L58.796875,49.71875 L64.0703125,49.71875 Z" id="path-5"></path>
        <path d="M44.9296875,62.46875 C48.5390625,62.46875 51.375,61.28125 53.4375,58.90625 C54.53125,57.671875 55.265625,56.1953125 55.640625,54.4765625 C55.765625,53.8515625 55.8632812,53.1289062 55.9335938,52.3085938 C56.0039062,51.4882812 56.0390625,50.5390625 56.0390625,49.4609375 L56.0390625,49.4609375 L56.0390625,27.171875 L50.765625,27.171875 L50.765625,29.75 C48.859375,27.609375 46.46875,26.5390625 43.59375,26.5390625 C40.3125,26.5390625 37.671875,27.7734375 35.671875,30.2421875 C33.8125,32.5703125 32.8828125,35.3984375 32.8828125,38.7265625 C32.8828125,42.1484375 33.8828125,45 35.8828125,47.28125 C37.8671875,49.53125 40.4140625,50.65625 43.5234375,50.65625 C46.2578125,50.65625 48.671875,49.5859375 50.765625,47.4453125 L50.765625,47.4453125 L50.765625,50.6328125 C50.765625,55.3671875 48.8359375,57.734375 44.9765625,57.734375 C42.8828125,57.734375 41.2890625,57.0234375 40.1953125,55.6015625 C39.7265625,54.9921875 39.390625,54.125 39.1875,53 L39.1875,53 L34.1160889,53.4766846 C34.2746341,54.9907919 34.4289176,55.8613076 35.0298671,57.0416009 C35.6134166,58.1877198 36.4055443,59.176457 37.40625,60.0078125 C39.375,61.6484375 41.8828125,62.46875 44.9296875,62.46875 Z M44.578125,45.9453125 C42.5625,45.9453125 40.984375,45.21875 39.84375,43.765625 C38.796875,42.4375 38.2734375,40.734375 38.2734375,38.65625 C38.2734375,36.546875 38.796875,34.828125 39.84375,33.5 C41,32.015625 42.578125,31.2734375 44.578125,31.2734375 C46.453125,31.2734375 47.9921875,31.953125 49.1953125,33.3125 C50.3828125,34.640625 50.9765625,36.4140625 50.9765625,38.6328125 C50.9765625,40.7109375 50.4375,42.4140625 49.359375,43.7421875 C48.1875,45.2109375 46.59375,45.9453125 44.578125,45.9453125 Z" id="path-6"></path>
        <path d="M29,26.1484375 C29.953125,26.1484375 30.7578125,25.8125 31.4140625,25.140625 C32.0859375,24.46875 32.421875,23.65625 32.421875,22.703125 C32.421875,21.75 32.0859375,20.9453125 31.4140625,20.2890625 C30.7421875,19.6171875 29.9296875,19.28125 28.9765625,19.28125 C28.0390625,19.28125 27.234375,19.6171875 26.5625,20.2890625 C25.890625,20.9609375 25.5546875,21.7578125 25.5546875,22.6796875 C25.5546875,23.6484375 25.890625,24.46875 26.5625,25.140625 C27.234375,25.8125 28.046875,26.1484375 29,26.1484375 Z M31.625,50 L31.625,27.171875 L26.3515625,27.171875 L26.3515625,50 L31.625,50 Z" id="path-7"></path>
        <path d="M11.7109375,50.65625 C14.3359375,50.65625 16.6875,49.640625 18.765625,47.609375 L18.765625,50 L24.0625,50 L24.0625,19.28125 L18.765625,25.0300293 L18.765625,29.8203125 C16.65625,27.6328125 14.265625,26.5390625 11.59375,26.5390625 C8.515625,26.5390625 5.9609375,27.6875 3.9296875,29.984375 C1.8828125,32.265625 0.859375,35.109375 0.859375,38.515625 C0.859375,42 1.8828125,44.90625 3.9296875,47.234375 C5.9921875,49.515625 8.5859375,50.65625 11.7109375,50.65625 Z M12.5546875,45.9453125 C10.7265625,45.9453125 9.2109375,45.25 8.0078125,43.859375 C6.8359375,42.484375 6.25,40.703125 6.25,38.515625 C6.25,36.46875 6.8515625,34.75 8.0546875,33.359375 C9.2734375,31.984375 10.7890625,31.296875 12.6015625,31.296875 C14.5234375,31.296875 16.0859375,31.9765625 17.2890625,33.3359375 C18.4921875,34.7265625 19.09375,36.4921875 19.09375,38.6328125 C19.09375,40.7734375 18.4921875,42.5390625 17.2890625,43.9296875 C16.0859375,45.2734375 14.5078125,45.9453125 12.5546875,45.9453125 Z" id="path-8"></path>
    </defs>
    <g id="Page-1" stroke="none" stroke-width="1" fill="none" fill-rule="evenodd">
        <g id="Artboard" transform="translate(-25.000000, -40.000000)">
            <g id="logo" transform="translate(25.000000, 22.000000)">
                <text id="y" fill="#101010" font-family="Futura-Medium, Futura" font-size="48" font-weight="400">
                    <tspan x="125.957031" y="50">y</tspan>
                </text>
                <g id="t" fill-rule="nonzero">
                    <use fill="#FFFFFF" xlink:href="#path-1"></use>
                    <use fill="#101010" xlink:href="#path-1"></use>
                </g>
                <g id="i" fill-rule="nonzero">
                    <use fill="#FFFFFF" xlink:href="#path-2"></use>
                    <use fill="#101010" xlink:href="#path-2"></use>
                </g>
                <g id="c" fill-rule="nonzero">
                    <use fill="#FFFFFF" xlink:href="#path-3"></use>
                    <use fill="#101010" xlink:href="#path-3"></use>
                </g>
                <text id="o" fill="#101010" font-family="Futura-Medium, Futura" font-size="48" font-weight="400">
                    <tspan x="70.5742188" y="50">o</tspan>
                </text>
                <g id="l" fill-rule="nonzero">
                    <use fill="#FFFFFF" xlink:href="#path-4"></use>
                    <use fill="#101010" xlink:href="#path-4"></use>
                </g>
                <g id="i" fill-rule="nonzero">
                    <use fill="#FFFFFF" xlink:href="#path-5"></use>
                    <use fill="#101010" xlink:href="#path-5"></use>
                </g>
                <g id="g" fill-rule="nonzero">
                    <use fill="#FFFFFF" xlink:href="#path-6"></use>
                    <use fill="#101010" xlink:href="#path-6"></use>
                </g>
                <g id="i" fill-rule="nonzero">
                    <use fill="#FFFFFF" xlink:href="#path-7"></use>
                    <use fill="#101010" xlink:href="#path-7"></use>
                </g>
                <g id="d" fill-rule="nonzero">
                    <use fill="#FFFFFF" xlink:href="#path-8"></use>
                    <use fill="#101010" xlink:href="#path-8"></use>
                </g>
            </g>
        </g>
    </g>
</svg>